<svg width="318" height="293" viewBox="0 0 318 293" fill="none" xmlns="http://www.w3.org/2000/svg">
<g clipPath="url(#clip0_1_29)">
<g clipPath="url(#clip1_1_29)">
<path d="M98.8714 121.761C50.0093 121.761 10.3866 160.041 10.3866 207.271C10.3866 254.494 50.0055 292.781 98.8714 292.781C147.737 292.781 187.352 254.498 187.352 207.271C187.352 160.041 147.737 121.761 98.8714 121.761ZM22.6216 207.271C22.6216 191.644 27.6613 177.166 36.2504 165.242L37.2316 165.96L36.6406 168.262L38.826 168.84L38.4246 165.766L40.2123 165.572V161.539H42L42.6467 163.14L43.3937 164.994L45.3821 167.113C45.3821 167.113 42.996 167.684 42.2081 167.684C41.4053 167.684 41.8067 170.758 41.8067 170.758L44.5905 171.717L46.3856 168.506L50.5519 164.031L52.5365 158.076L56.3163 154.617L54.1272 153.087L56.5207 151.543L56.7214 149.428L49.764 151.353L49.5373 151.098C53.3397 147.976 57.4487 145.222 61.8057 142.873L65.0689 144.245L62.8798 148.278H58.5054L57.7101 151.927H61.2929L66.4626 148.856L70.038 145.401L70.6327 142.136L65.4666 141.756L69.042 139.446L72.4166 140.025L71.8294 143.48L76.3971 140.786L77.1962 142.901L78.1922 145.976L75.6055 149.047L72.8255 151.543L68.6443 150.968L70.6364 155.002L66.8603 154.427L60.4938 160.766L62.0882 162.882L67.258 162.494L71.6324 161.147L77.2036 160.58L79.7829 160.005C79.7829 160.005 79.7829 158.464 79.5822 157.509C79.3815 156.546 81.5706 157.699 81.5706 157.699L83.9604 156.356L85.7444 150.976L92.3079 148.088L91.3118 146.551L92.9062 144.633L87.7364 143.857L89.1302 141.935L82.5629 139.82H79.1846L80.3739 136.939L81.7676 135.592L81.6561 135.485C87.3015 134.223 93.0769 133.584 98.8714 133.581C108.1 133.581 116.941 135.165 125.133 138.071L124.928 138.52L121.617 138.308V140.229L122.944 141.081V142.79L124.051 144.281L120.075 141.935L117.425 143.218L118.748 146.206L119.413 149.621L121.182 151.543L125.371 152.186L124.497 153.892L123.609 156.46L127.367 158.805L127.144 159.872L120.078 154.111L119.643 156.248L122.732 159.233L124.501 159.876L120.521 160.727L120.082 162.648L117.213 159.872L115.44 156.248L114.782 152.613L113.009 154.747L114.332 159.872L116.54 161.373L115.663 166.276L114.336 165.637L114.559 168.201L112.567 167.982L110.586 165.206H108.159L104.625 164.778L101.086 164.997L97.7713 167.562L95.5636 171.189L90.9216 174.609L90.4793 176.523V178.879L91.5869 181.224L93.7982 179.511L94.4561 180.793L95.5673 182.711L95.7866 183.142L96.8904 184.421L98.8825 183.146L98.6595 178.445L101.086 175.453L101.343 174.364C101.532 173.585 101.744 172.68 101.744 172.68L102.629 170.324L104.179 170.543L103.736 172.464L102.848 176.731L107.052 176.307L108.601 176.731L105.283 177.593L105.725 179.727L101.96 182.069L102.187 184.421L98.8751 185.276L98.2135 186.982L95.5599 186.131H93.7908V182.503L91.7987 183.15V185.068L86.2758 189.338L83.1799 190.405L81.8605 191.899L77.4452 190.829L77.2185 192.754L80.0914 193.82L79.8684 197.66L71.9075 197.444L70.8073 199.154L69.6998 202.142L68.3767 204.714L70.3651 206.847L72.5764 209.405L79.6491 207.268L80.0914 204.707L81.6412 203.425L84.2912 202.57L84.0682 200.864L86.4988 200.221L90.0333 199.578L92.2447 202.139L96.2214 204.919L97.9868 207.688V208.97L100.194 207.688L99.0944 205.773L99.5367 203.629L97.5446 202.782L95.7792 200.436L96.883 197.013L98.8677 199.79L101.733 201.93L102.837 205.773L105.714 207.903L106.379 210.252L107.706 207.479L107.263 206.197L107.921 205.131L112.114 201.715L113.002 197.444L114.775 196.166L116.979 196.381L120.301 193.174L120.517 195.742L125.374 197.232V199.581H121.405L115.44 202.57L110.582 205.134L111.902 207.907L116.321 208.758L118.751 209.828L121.401 208.122L121.621 215.381L114.109 216.875L106.156 214.738L103.064 217.087L104.387 218.366L101.952 217.938L94.2294 215.166L92.018 215.381L90.2452 212.605V209.189H86.2684L84.0607 208.762L76.9918 210.259L71.4689 209.832L69.0382 211.114L67.4921 211.33L66.6113 214.099L61.5307 217.515L54.458 222.643L54.0158 229.256L52.0311 233.53L52.2504 236.087L54.0195 239.082L59.1038 247.404L64.4074 249.753L73.2417 250.396L72.7994 246.761L70.8148 245.698L71.6956 243.773L73.2417 245.483L74.7915 249.965L81.4145 250.396L84.0682 252.957L87.8257 254.451L88.2642 260.643L92.2447 265.553L95.9985 271.957L92.6832 275.8L96.0691 280.886C55.2571 279.464 22.6216 247.06 22.6216 207.271ZM124.999 276.518L134.216 270.039L130.901 262.141L141.508 248.69L144.816 240.149L146.362 235.448L140.843 238.016L137.528 238.659L129.359 233.745L126.924 228.404L123.836 225.416L119.863 216.875L123.174 219.44L129.366 226.059L131.574 229.044L135.989 231.184L137.312 236.737L142.619 233.318L149.027 225.628L152.119 217.734L149.688 215.816L148.362 213.463L146.816 216.24L143.727 219.655L139.304 214.95L137.985 211.326L141.077 211.969L144.169 213.46L148.588 211.969L151.242 212.82L158.304 208.122L162.284 210.256L164.711 208.977L169.996 217.015L172.609 214.602L172.661 211.538L172.884 202.354L174.508 198.005C174.906 201.04 175.132 204.125 175.132 207.264C175.125 239.097 154.249 266.21 124.999 276.518Z" fill="#42C4E3"/>
<path d="M291.596 43.0246L224.957 0.405969C224.528 0.130304 224.046 -0.059683 223.54 -0.15282C223.034 -0.245957 222.514 -0.240364 222.01 -0.136372L148.202 14.9234C146.715 15.2251 145.544 16.3457 145.21 17.7896L144.768 19.7183C144.418 21.2376 145.072 22.8071 146.421 23.6691L177.321 43.434L176.061 48.94C164.897 57.0284 157.638 69.8794 157.638 84.3933C157.638 108.874 178.187 128.736 203.508 128.736C228.83 128.736 249.386 108.878 249.386 84.3933C249.386 79.1351 248.386 74.1104 246.647 69.4304C247.335 68.5828 247.807 67.6777 248.026 66.7187L249.565 59.9808L269.5 55.9114C271.979 59.2984 273.6 63.4108 274.005 68.6511C272.977 69.158 272.113 69.9291 271.508 70.8795C270.904 71.8299 270.582 72.9229 270.578 74.0385C270.578 76.0175 271.571 77.7523 273.083 78.8657C271.37 87.3133 269.084 102.833 273.641 109.714C274.982 111.737 276.885 113.033 279.138 113.446C279.85 113.532 280.569 113.352 281.149 112.944C281.729 112.536 282.126 111.93 282.261 111.248C282.395 110.567 282.256 109.862 281.872 109.277C281.488 108.691 280.888 108.268 280.193 108.095C279.699 108.005 279.048 107.771 278.39 106.776C276.781 104.349 276.406 99.5573 276.703 94.1482C278.093 98.3433 280.23 102.118 283.527 104.216C284.151 104.566 284.891 104.673 285.594 104.513C286.297 104.353 286.91 103.939 287.306 103.356C287.703 102.773 287.854 102.065 287.728 101.378C287.601 100.691 287.207 100.076 286.626 99.6614C282.196 96.842 280.327 87.1732 279.925 79.3326C281.858 78.2946 283.177 76.3264 283.177 74.0385C283.177 71.6429 281.732 69.5921 279.65 68.6008C279.279 63.0157 277.777 58.4723 275.458 54.6975L289.808 51.7667C291.298 51.465 292.469 50.3444 292.8 48.9041L293.242 46.9754C293.414 46.2332 293.349 45.458 293.055 44.7524C292.761 44.0469 292.252 43.4443 291.596 43.0246ZM215.201 28.2808C215.264 27.7888 215.781 27.3865 216.743 27.189C218.661 26.8011 221.623 27.3829 223.359 28.4891C224.225 29.0423 224.622 29.6241 224.556 30.1197L224.273 31.4702C224.206 31.9623 223.693 32.3609 222.734 32.5585C220.809 32.95 217.855 32.3681 216.119 31.2619C215.253 30.7052 214.855 30.1233 214.918 29.6313L215.201 28.2808Z" fill="#42C4E3"/>
<path d="M203.508 137.32C193.106 137.32 183.201 139.827 174.192 144.356C189.315 161.244 198.499 183.232 198.499 207.271C198.499 224.859 193.57 241.352 185.007 255.557H253.53C267.356 255.557 278.543 242.34 278.543 225.998C278.547 177.047 244.937 137.32 203.508 137.32Z" fill="#42C4E3"/>
</g>
</g>
<defs>
<clipPath id="clip0_1_29">
<rect width="318" height="293" fill="white"/>
</clipPath>
<clipPath id="clip1_1_29">
<rect width="282.95" height="293" fill="white" transform="translate(10.3866 -0.21875)"/>
</clipPath>
</defs>
</svg>
